# xmcd
#
# Track frame offsets:
#	150
#	22255
#	41557
#	59392
#	77727
#	100715
#	123372
#	141142
#	163255
#	188587
#	207125
#	227284
#	247520
#	264747
#	286385
#
# Disc length: 4074 seconds
#
# Revision: 4
# Processed by: cddbd v1.5.2PL0 Copyright (c) Steve Scherf et al.
# Submitted via: audiograbber 1.83.01
#
DISCID=c60fe80f
DTITLE=Stevie B - The Best Of Stevie B - Volume 2
DYEAR=1996
DGENRE=Freestyle
TTITLE0=Stevie B - Funky Melody
TTITLE1=Stevie B - Celebration
TTITLE2=Stevie B - I Wanna Love You Girl
TTITLE3=Stevie B - Dream About You
TTITLE4=Stevie B - I Need You
TTITLE5=Stevie B - Girl I Love Ya'
TTITLE6=Stevie B - Crying Out
TTITLE7=Stevie B - Take My Hand
TTITLE8=Stevie B - Prayer
TTITLE9=Stevie B - Promisse To Share
TTITLE10=Stevie B - If You Still Love Me
TTITLE11=Stevie B - Can You Feel It
TTITLE12=Stevie B - Call My Name
TTITLE13=Stevie B - Waiting For Your Love
TTITLE14=Stevie B - Running Back
EXTD=Dados Por - Dayvison de Azevedo - Recife - PE\nFacebook - https://www.face
EXTD=book.com/profile.php?id=100006142608616
EXTT0=
EXTT1=
EXTT2=
EXTT3=
EXTT4=
EXTT5=
EXTT6=
EXTT7=
EXTT8=
EXTT9=
EXTT10=
EXTT11=
EXTT12=
EXTT13=
EXTT14=
PLAYORDER=
